<svg width="60" height="48" viewBox="0 0 60 48" fill="none" xmlns="http://www.w3.org/2000/svg">
<path d="M59.2465 4.88615L47.2464 0.0861212C46.9599 -0.0287071 46.6401 -0.0287071 46.3536 0.0861212L34.3536 4.88615C34.1311 4.9753 33.9404 5.12901 33.8061 5.32749C33.6718 5.52596 33.6 5.76011 33.5999 5.99976V18.403C33.6062 20.682 34.1992 22.9211 35.322 24.9043C36.4448 26.8876 38.0594 28.5482 40.0104 29.7263L46.1832 33.4295C46.3696 33.5412 46.5828 33.6002 46.8 33.6002C47.0173 33.6002 47.2305 33.5412 47.4168 33.4295L52.8001 30.1991V43.6392C52.7994 44.1609 52.5919 44.6611 52.2229 45.0301C51.854 45.399 51.3538 45.6066 50.832 45.6072H4.36778C3.84603 45.6066 3.34582 45.399 2.97689 45.0301C2.60795 44.6611 2.4004 44.1609 2.39977 43.6392V16.7998H29.9999C30.3182 16.7998 30.6234 16.6734 30.8485 16.4483C31.0735 16.2233 31.1999 15.9181 31.1999 15.5998C31.1999 15.2815 31.0735 14.9763 30.8485 14.7513C30.6234 14.5262 30.3182 14.3998 29.9999 14.3998H2.39977V11.5678C2.4004 11.046 2.60795 10.5458 2.97689 10.1769C3.34582 9.80796 3.84603 9.60041 4.36778 9.59978H29.9999C30.3182 9.59978 30.6234 9.47335 30.8485 9.2483C31.0735 9.02326 31.1999 8.71803 31.1999 8.39977C31.1999 8.08151 31.0735 7.77628 30.8485 7.55124C30.6234 7.32619 30.3182 7.19976 29.9999 7.19976H4.36778C3.2095 7.2004 2.09885 7.6608 1.27982 8.47983C0.460797 9.29885 0.000391751 10.4095 -0.000244141 11.5678V43.632C0.000391751 44.7903 0.460797 45.9009 1.27982 46.7199C2.09885 47.539 3.2095 47.9994 4.36778 48H50.832C51.9903 47.9994 53.101 47.539 53.92 46.7199C54.739 45.9009 55.1994 44.7903 55.2001 43.632V28.5599C56.6949 27.3205 57.8996 25.7681 58.729 24.0123C59.5583 22.2565 59.9923 20.34 60.0001 18.3982V5.99976C60 5.76011 59.9282 5.52596 59.7939 5.32749C59.6596 5.12901 59.4689 4.9753 59.2465 4.88615ZM57.6001 18.403C57.5952 20.2678 57.1098 22.0999 56.1909 23.7226C55.2719 25.3452 53.9504 26.7038 52.3537 27.6671L46.8 31.0007L41.2464 27.6671C39.6497 26.7038 38.3281 25.3452 37.4092 23.7226C36.4902 22.0999 36.0049 20.2678 36 18.403V6.81096L46.8 2.49094L57.6001 6.81096V18.403Z" fill="white"/>
<path d="M42.8498 14.9875C42.7384 14.8759 42.6061 14.7874 42.4605 14.7269C42.3149 14.6665 42.1588 14.6353 42.0011 14.6352C41.8434 14.6351 41.6873 14.666 41.5415 14.7263C41.3958 14.7865 41.2634 14.8749 41.1518 14.9863C41.0403 15.0977 40.9517 15.23 40.8913 15.3756C40.8308 15.5213 40.7997 15.6774 40.7996 15.835C40.7994 15.9927 40.8304 16.1489 40.8906 16.2946C40.9509 16.4403 41.0392 16.5727 41.1506 16.6843L44.3522 19.8835C44.5773 20.1085 44.8825 20.2349 45.2007 20.2349C45.5189 20.2349 45.824 20.1085 46.0491 19.8835L52.4499 13.4827C52.6749 13.2573 52.8012 12.9519 52.801 12.6334C52.8007 12.315 52.674 12.0097 52.4487 11.7847C52.2234 11.5597 51.9179 11.4334 51.5994 11.4336C51.281 11.4338 50.9757 11.5605 50.7507 11.7859L45.1995 17.3395L42.8498 14.9875Z" fill="white"/>
<path d="M8.39947 38.4336C8.08121 38.4336 7.77598 38.56 7.55094 38.7851C7.32589 39.0101 7.19946 39.3153 7.19946 39.6336C7.19946 39.9519 7.32589 40.2571 7.55094 40.4821C7.77598 40.7072 8.08121 40.8336 8.39947 40.8336H17.9995C18.3178 40.8336 18.623 40.7072 18.8481 40.4821C19.0731 40.2571 19.1995 39.9519 19.1995 39.6336C19.1995 39.3153 19.0731 39.0101 18.8481 38.7851C18.623 38.56 18.3178 38.4336 17.9995 38.4336H8.39947Z" fill="white"/>
</svg>
