<svg width="50" height="54" viewBox="0 0 50 54" fill="none" xmlns="http://www.w3.org/2000/svg">
<path d="M25.9981 50.2863C25.9981 50.7822 26.4459 51.1842 26.9982 51.1842H44.9995C47.7598 51.1813 49.9966 49.1729 49.9999 46.6944V4.49029C49.9966 2.01187 47.7598 0.00345705 44.9995 0.000488281H13.9972C11.2369 0.00345705 9.00013 2.01187 8.99683 4.49029V24.2454C8.99683 24.7414 9.44458 25.1434 9.9969 25.1434C10.5492 25.1434 10.997 24.7414 10.997 24.2454V4.49029C10.997 3.0025 12.3402 1.79641 13.9972 1.79641H44.9995C46.6565 1.79641 47.9998 3.0025 47.9998 4.49029V46.6944C47.9998 48.1822 46.6565 49.3883 44.9995 49.3883H26.9982C26.4459 49.3883 25.9981 49.7904 25.9981 50.2863Z" fill="#8CBC37"/>
<path d="M45.0044 6.43947C45.0044 5.44627 44.1089 4.64111 43.0042 4.64111H16.0023C14.8977 4.64111 14.0022 5.44627 14.0022 6.43947V14.5321C14.0022 15.5253 14.8977 16.3304 16.0023 16.3304H43.0042C44.1089 16.3304 45.0044 15.5253 45.0044 14.5321V6.43947ZM19.6866 14.5321L24.5969 6.43947H28.3192L23.4089 14.5321H19.6866ZM16.0023 6.43947H22.3188L17.4084 14.5321H16.0023V6.43947ZM43.0042 14.5321H25.687L30.5974 6.43947H43.0042V14.5321Z" fill="#8CBC37"/>
<path d="M11.2987 53.9994C12.228 53.9988 13.1463 53.8181 13.9909 53.4698C14.3401 53.6147 14.7033 53.7306 15.076 53.8159C19.8873 54.9318 25.3767 50.7902 27.2969 44.5778C28.4469 40.8633 28.1199 37.0651 26.4208 34.4171C25.5004 32.8651 23.9124 31.7204 22.0275 31.2501C19.9399 30.8209 17.7478 31.2107 15.9991 32.322C15.7238 32.4791 15.4261 32.6019 15.114 32.687C15.75 28.9015 18.6543 27.9214 18.8033 27.8746C19.3083 27.7044 19.5722 27.2047 19.3998 26.7452C19.2273 26.2858 18.6807 26.032 18.1642 26.1716C16.7845 26.6709 15.5995 27.5255 14.758 28.6281C14.6434 28.5049 14.5212 28.3875 14.392 28.2766C13.4044 27.4779 12.2065 26.919 10.9117 26.6526C9.07758 26.2453 6.05036 26.6365 3.83421 27.0393C3.20707 27.1532 2.70745 27.5793 2.54777 28.1364C2.38808 28.6935 2.5964 29.2836 3.08415 29.6559C3.80521 30.2071 4.65227 30.814 5.52533 31.3688C3.82539 31.9045 2.40915 32.9916 1.55405 34.4171C-0.146074 37.0624 -0.472097 40.8606 0.678984 44.5778C2.39811 50.105 6.92443 53.9994 11.2987 53.9994ZM10.4367 28.4007C11.3926 28.5946 12.2794 29.0001 13.0169 29.5804C13.4699 29.9688 13.6939 30.3752 13.6169 30.6648C13.5399 30.9543 13.1299 31.2187 12.5268 31.3724C11.5731 31.5759 10.5779 31.562 9.63162 31.332C7.89136 30.7217 6.29318 29.8245 4.91928 28.6866C6.72291 28.2957 8.58977 28.1979 10.4317 28.398L10.4367 28.4007ZM3.28717 35.3162C3.94192 34.1865 5.0824 33.3469 6.44339 32.9928C6.8148 32.9066 7.19691 32.8634 7.58047 32.8642C8.76392 32.8946 9.91251 33.2312 10.8887 33.8335C11.528 34.1994 12.2419 34.447 12.9889 34.5618V36.0059C12.9889 36.5025 13.4366 36.9051 13.9889 36.9051C14.5412 36.9051 14.989 36.5025 14.989 36.0059V34.5618C15.7362 34.4479 16.4504 34.2002 17.0891 33.8335C18.3716 32.9991 19.9878 32.6935 21.5355 32.9928C22.8961 33.3471 24.0362 34.1866 24.6907 35.3162C26.1268 37.5525 26.3818 40.8327 25.3717 44.0913C23.7386 49.3668 19.3453 52.9536 15.571 52.0706C15.1896 51.9832 14.823 51.8501 14.481 51.675C14.1761 51.5205 13.8037 51.5205 13.4989 51.675C13.1555 51.8506 12.7875 51.9843 12.4048 52.0724C8.63855 52.9482 4.24424 49.3677 2.61012 44.0913C1.59805 40.8327 1.85107 37.5525 3.28717 35.3162Z" fill="#8CBC37"/>
<path d="M6.46197 42.9456C5.7164 40.9801 5.82028 38.8344 6.75299 36.9346C6.89077 36.6552 7.13418 36.4287 7.44004 36.2953C7.97524 36.1711 8.29717 35.6804 8.15909 35.1992C8.02101 34.718 7.4752 34.4285 6.94 34.5527C6.10091 34.7897 5.40656 35.3256 5.01887 36.0354C4.1128 37.4444 3.50976 40.1267 4.53283 43.4285C4.68113 43.9069 5.23275 44.1867 5.76492 44.0534C6.29708 43.9201 6.60827 43.4241 6.45997 42.9456H6.46197Z" fill="#8CBC37"/>
<path d="M41.9999 38.7427H38.9997C37.3428 38.7427 35.9995 39.9504 35.9995 41.4402V44.1377C35.9995 45.6276 37.3428 46.8353 38.9997 46.8353H41.9999C43.6569 46.8353 45.0001 45.6276 45.0001 44.1377V41.4402C45.0001 39.9504 43.6569 38.7427 41.9999 38.7427ZM43 44.1377C43 44.6344 42.5523 45.0369 41.9999 45.0369H38.9997C38.4474 45.0369 37.9997 44.6344 37.9997 44.1377V41.4402C37.9997 40.9436 38.4474 40.541 38.9997 40.541H41.9999C42.5523 40.541 43 40.9436 43 41.4402V44.1377Z" fill="#8CBC37"/>
<path d="M45.0001 31.3621C45.0001 29.8723 43.6569 28.6646 41.9999 28.6646H38.9997C37.3428 28.6646 35.9995 29.8723 35.9995 31.3621V34.0596C35.9995 35.5494 37.3428 36.7572 38.9997 36.7572H41.9999C43.6569 36.7572 45.0001 35.5494 45.0001 34.0596V31.3621ZM43 34.0596C43 34.5562 42.5523 34.9588 41.9999 34.9588H38.9997C38.4474 34.9588 37.9997 34.5562 37.9997 34.0596V31.3621C37.9997 30.8655 38.4474 30.4629 38.9997 30.4629H41.9999C42.5523 30.4629 43 30.8655 43 31.3621V34.0596Z" fill="#8CBC37"/>
<path d="M45.0001 21.6746C45.0001 20.1848 43.6569 18.9771 41.9999 18.9771H38.9997C37.3428 18.9771 35.9995 20.1848 35.9995 21.6746V24.3721C35.9995 25.8619 37.3428 27.0697 38.9997 27.0697H41.9999C43.6569 27.0697 45.0001 25.8619 45.0001 24.3721V21.6746ZM43 24.3721C43 24.8687 42.5523 25.2713 41.9999 25.2713H38.9997C38.4474 25.2713 37.9997 24.8687 37.9997 24.3721V21.6746C37.9997 21.178 38.4474 20.7754 38.9997 20.7754H41.9999C42.5523 20.7754 43 21.178 43 21.6746V24.3721Z" fill="#8CBC37"/>
<path d="M31.0006 45.0369H29.9805C29.4282 45.0369 28.9805 45.4395 28.9805 45.9361C28.9805 46.4327 29.4282 46.8353 29.9805 46.8353H31.0006C32.6576 46.8353 34.0008 45.6276 34.0008 44.1377V41.4402C34.0008 39.9504 32.6576 38.7427 31.0006 38.7427H30.9606C30.6974 38.7434 30.4455 38.8389 30.2613 39.0079C30.0771 39.1769 29.976 39.4053 29.9805 39.6419C29.9898 40.142 30.4443 40.5426 31.0006 40.541C31.5529 40.541 32.0007 40.9436 32.0007 41.4402V44.1377C32.0007 44.3762 31.8953 44.6049 31.7078 44.7736C31.5202 44.9422 31.2658 45.0369 31.0006 45.0369Z" fill="#8CBC37"/>
<path d="M27.2572 30.7704C27.4425 30.5751 27.7137 30.4627 27.9992 30.4629H30.9995C31.5518 30.4629 31.9995 30.8655 31.9995 31.3621V34.0596C31.9995 34.5562 31.5518 34.9588 30.9995 34.9588H30.3694C29.8171 34.9588 29.3693 35.3614 29.3693 35.858C29.3693 36.3546 29.8171 36.7572 30.3694 36.7572H30.9995C32.6564 36.7572 33.9997 35.5494 33.9997 34.0596V31.3621C33.9997 29.8723 32.6564 28.6646 30.9995 28.6646H27.9992C27.1205 28.6619 26.286 29.0109 25.7221 29.6168C25.3678 29.9979 25.4242 30.5652 25.8481 30.8837C26.272 31.2023 26.9029 31.1516 27.2572 30.7704Z" fill="#8CBC37"/>
<path d="M29.5032 25.2713H22.0027C21.4504 25.2713 21.0026 25.6739 21.0026 26.1705C21.0026 26.6671 21.4504 27.0697 22.0027 27.0697H29.5032C31.9852 27.0623 33.9953 25.255 34.0035 23.0234C34.0008 20.7897 31.9875 18.9795 29.5032 18.9771H18.5024C16.9267 18.9736 15.4643 19.7132 14.6493 20.9258C13.8343 22.1384 13.786 23.6464 14.5221 24.8991C14.7848 25.3361 15.3917 25.4989 15.8777 25.2628C16.3638 25.0266 16.5449 24.4809 16.2823 24.0439C16.0964 23.7298 16.0002 23.3792 16.0023 23.0234C16.011 21.7851 17.1253 20.7833 18.5024 20.7754H29.5032C30.884 20.7754 32.0034 21.7819 32.0034 23.0234C31.9947 24.2616 30.8804 25.2635 29.5032 25.2713Z" fill="#8CBC37"/>
</svg>
