<svg width="70" height="70" viewBox="0 0 70 70" fill="none" xmlns="http://www.w3.org/2000/svg">
<path d="M59.0625 44.8438H58.7016L54.7531 35.6345C55.4226 35.9279 56.1441 36.0841 56.875 36.0938C57.1651 36.0938 57.4433 35.9786 57.6484 35.7735C57.8535 35.5684 57.9688 35.2902 57.9688 35.0001V26.2501C57.9688 25.96 57.8535 25.6818 57.6484 25.4767C57.4433 25.2716 57.1651 25.1563 56.875 25.1563C55.736 25.1625 54.6273 25.5242 53.7038 26.1909C52.7803 26.8575 52.0879 27.7959 51.7234 28.8751C51.4016 28.4257 50.9909 28.0473 50.5168 27.7632C50.0426 27.4791 49.5152 27.2954 48.9672 27.2235C48.2725 27.1338 47.567 27.1783 46.8891 27.3548H45.9375C44.0891 27.3548 43.2688 26.261 41.9781 24.4782L41.3328 23.5704C41.9947 23.5366 42.636 23.3292 43.1922 22.9688C43.6142 22.6625 43.9716 22.2758 44.2438 21.831C44.5159 21.3861 44.6975 20.8919 44.7781 20.3767C45.1336 20.1718 45.4445 19.8979 45.6925 19.5711C45.9404 19.2442 46.1204 18.8711 46.2219 18.4735C46.2681 18.16 46.2375 17.8399 46.1327 17.5408C46.0279 17.2417 45.8521 16.9725 45.6203 16.7563C45.1737 15.9917 44.929 15.126 44.9094 14.2407C45.1918 14.2238 45.4566 14.0982 45.6483 13.8901C45.84 13.6821 45.9437 13.4079 45.9375 13.1251C45.9376 11.9658 45.7074 10.8181 45.2601 9.74859C44.8129 8.67907 44.1576 7.70909 43.3323 6.89498C42.507 6.08088 41.5282 5.43888 40.4526 5.0063C39.3771 4.57371 38.2263 4.35915 37.0672 4.37509C34.7925 4.41987 32.6234 5.34345 31.0146 6.95222C29.4059 8.561 28.4823 10.7301 28.4375 13.0048C28.4171 14.1645 28.6291 15.3165 29.0612 16.3929C29.4932 17.4693 30.1365 18.4483 30.9531 19.272C31.1951 19.5125 31.4508 19.7389 31.7188 19.9501C27.4969 20.9782 25.2766 24.9376 24.1391 28.372C23.8154 28.0458 23.4303 27.787 23.006 27.6105C22.5817 27.4341 22.1267 27.3434 21.6672 27.3438H10.0516C9.46826 27.3429 8.89408 27.4886 8.38186 27.7677C7.86963 28.0467 7.43581 28.4501 7.12031 28.9407C6.96222 29.1844 6.9074 29.4809 6.96791 29.765C7.02842 30.049 7.1993 30.2975 7.44297 30.4556C7.68664 30.6136 7.98313 30.6685 8.26722 30.608C8.5513 30.5475 8.79972 30.3766 8.95781 30.1329C9.07566 29.9503 9.2377 29.8005 9.4289 29.6972C9.6201 29.594 9.83427 29.5407 10.0516 29.5423H12.0313V32.8235C12.0313 33.1136 12.1465 33.3918 12.3516 33.5969C12.5567 33.802 12.8349 33.9173 13.125 33.9173H18.5938C18.8838 33.9173 19.162 33.802 19.3672 33.5969C19.5723 33.3918 19.6875 33.1136 19.6875 32.8235V29.5313H21.6672C21.8381 29.5313 22.0074 29.565 22.1653 29.6304C22.3232 29.6958 22.4667 29.7917 22.5875 29.9126C22.7084 30.0334 22.8043 30.1769 22.8697 30.3348C22.9351 30.4927 22.9688 30.662 22.9688 30.8329V39.1782C22.9659 39.5215 22.8275 39.8498 22.5837 40.0915C22.3399 40.3332 22.0105 40.4688 21.6672 40.4688H10.0516C9.73833 40.4775 9.4328 40.3709 9.1929 40.1693C8.953 39.9677 8.79541 39.6851 8.75 39.3751H10.9375C11.2276 39.3751 11.5058 39.2598 11.7109 39.0547C11.916 38.8496 12.0313 38.5714 12.0313 38.2813C12.0313 37.9913 11.916 37.7131 11.7109 37.5079C11.5058 37.3028 11.2276 37.1876 10.9375 37.1876H8.75V35.0001H9.84375C10.1338 35.0001 10.412 34.8849 10.6172 34.6797C10.8223 34.4746 10.9375 34.1964 10.9375 33.9063C10.9375 33.6163 10.8223 33.3381 10.6172 33.1329C10.412 32.9278 10.1338 32.8126 9.84375 32.8126H4.375C4.08492 32.8126 3.80672 32.9278 3.6016 33.1329C3.39648 33.3381 3.28125 33.6163 3.28125 33.9063C3.28125 34.1964 3.39648 34.4746 3.6016 34.6797C3.80672 34.8849 4.08492 35.0001 4.375 35.0001H6.5625V37.1876H2.1875C1.89742 37.1876 1.61922 37.3028 1.4141 37.5079C1.20898 37.7131 1.09375 37.9913 1.09375 38.2813C1.09375 38.5714 1.20898 38.8496 1.4141 39.0547C1.61922 39.2598 1.89742 39.3751 2.1875 39.3751H6.5625C6.61273 40.2611 6.99975 41.0944 7.64431 41.7044C8.28888 42.3144 9.14224 42.655 10.0297 42.6563H15.4984C14.9923 43.1526 14.5612 43.7201 14.2188 44.3407C12.7582 47.205 12.0079 50.3787 12.0313 53.5938C12.0313 53.8839 12.1465 54.1621 12.3516 54.3672C12.5567 54.5723 12.8349 54.6876 13.125 54.6876H16.4828C16.7627 56.7896 17.7965 58.7185 19.3919 60.1155C20.9872 61.5125 23.0357 62.2826 25.1563 62.2826C27.2768 62.2826 29.3253 61.5125 30.9206 60.1155C32.516 58.7185 33.5498 56.7896 33.8297 54.6876H50.3891C50.5996 56.3586 51.2879 57.9334 52.3715 59.2229C53.455 60.5123 54.8876 61.4617 56.4974 61.9569C58.1072 62.4522 59.8257 62.4724 61.4466 62.015C63.0676 61.5576 64.5221 60.6421 65.6356 59.3784C66.749 58.1147 67.4741 56.5565 67.7238 54.8909C67.9734 53.2252 67.7371 51.5229 67.0431 49.9883C66.3491 48.4537 65.2269 47.152 63.8113 46.2394C62.3957 45.3269 60.7468 44.8423 59.0625 44.8438ZM17.5 31.7188H14.2188V29.5313H17.5V31.7188ZM55.7813 27.5298V33.7204C55.1403 33.4949 54.5852 33.0761 54.1925 32.5216C53.7998 31.9672 53.5889 31.3045 53.5889 30.6251C53.5889 29.9457 53.7998 29.283 54.1925 28.7285C54.5852 28.1741 55.1403 27.7552 55.7813 27.5298ZM48.65 29.3782C49.0788 29.4424 49.4771 29.6377 49.7905 29.9373C50.1038 30.2369 50.3167 30.6262 50.4 31.0516L50.6844 31.7188C49.1616 32.5016 47.4626 32.8784 45.7516 32.8126C45.6009 32.1629 45.6798 31.481 45.9749 30.8829C46.27 30.2847 46.7631 29.8072 47.3703 29.5313C47.7828 29.3976 48.2182 29.3492 48.65 29.3892V29.3782ZM43.2578 18.7032C43.0758 18.7949 42.923 18.9357 42.8167 19.1096C42.7104 19.2836 42.6548 19.4838 42.6563 19.6876C42.6482 19.9629 42.5827 20.2336 42.4641 20.4822C42.3454 20.7308 42.1762 20.9519 41.9672 21.1313C41.3438 21.547 40.1844 21.4485 38.6859 20.8579C38.606 20.8491 38.5253 20.8491 38.4453 20.8579L38.2813 20.7157V16.5267C38.2813 15.9146 38.5244 15.3276 38.9572 14.8948C39.39 14.462 39.977 14.2188 40.5891 14.2188H42.6563C42.6907 15.6347 43.1352 17.0101 43.9359 18.1782C43.7381 18.3899 43.5095 18.5705 43.2578 18.7142V18.7032ZM30.625 13.0267C30.6797 11.3296 31.3783 9.71707 32.5789 8.51648C33.7795 7.31588 35.3921 6.61729 37.0891 6.56259H37.1875C38.7391 6.56158 40.2409 7.11036 41.4262 8.11152C42.6116 9.11268 43.4039 10.5015 43.6625 12.0313H40.5891C39.3977 12.0342 38.256 12.5088 37.4136 13.3512C36.5712 14.1936 36.0966 15.3353 36.0938 16.5267V19.6001C34.5489 19.3391 33.1484 18.5341 32.1454 17.3305C31.1424 16.1269 30.6031 14.6042 30.625 13.0376V13.0267ZM33.9063 21.8751C37.4828 21.8751 38.7953 23.7454 40.1844 25.7142C41.1906 27.1579 42.3719 28.7329 44.3406 29.2907C43.7213 30.2914 43.4413 31.4651 43.5422 32.6376C42.1847 32.341 40.9043 31.7635 39.7834 30.9422C38.6626 30.1209 37.7262 29.0739 37.0344 27.8688C36.9748 27.7243 36.8849 27.5942 36.7708 27.4873C36.6566 27.3804 36.5209 27.2993 36.3728 27.2493C36.2246 27.1993 36.0674 27.1817 35.9119 27.1976C35.7563 27.2135 35.606 27.2626 35.471 27.3415C35.3361 27.4204 35.2196 27.5274 35.1294 27.6552C35.0393 27.7829 34.9776 27.9285 34.9485 28.0822C34.9194 28.2358 34.9236 28.3939 34.9608 28.5458C34.998 28.6976 35.0673 28.8398 35.1641 28.9626C35.5606 29.6279 36.0144 30.2574 36.5203 30.8438L36.4219 30.9095C35.4023 32.0822 34.6851 33.4866 34.3328 35.0001H25.1563V33.9063C25.2328 33.2391 26.4797 21.8751 33.9063 21.8751ZM25.1563 39.1673V37.1876H35C35.2188 37.1876 40.4688 37.2532 40.4688 42.6563V48.1251H36.0938V45.9376C36.1214 45.212 35.9989 44.4885 35.7338 43.8125C35.4688 43.1365 35.0669 42.5225 34.5535 42.0091C34.04 41.4957 33.4261 41.0938 32.7501 40.8288C32.0741 40.5637 31.3506 40.4412 30.625 40.4688H24.9047C25.0717 40.0553 25.1572 39.6133 25.1563 39.1673ZM25.1563 60.1563C23.6065 60.1548 22.1074 59.6048 20.9243 58.6039C19.7412 57.6029 18.9505 56.2156 18.6922 54.6876H20.9344C21.1863 55.6144 21.7361 56.4326 22.4991 57.0159C23.2621 57.5992 24.1958 57.9152 25.1563 57.9152C26.1167 57.9152 27.0504 57.5992 27.8134 57.0159C28.5764 56.4326 29.1263 55.6144 29.3781 54.6876H31.6203C31.362 56.2156 30.5713 57.6029 29.3882 58.6039C28.2051 59.6048 26.706 60.1548 25.1563 60.1563ZM23.275 54.6876H27.0375C26.8438 55.014 26.5685 55.2844 26.2387 55.4722C25.9088 55.66 25.5358 55.7588 25.1563 55.7588C24.7767 55.7588 24.4037 55.66 24.0738 55.4722C23.744 55.2844 23.4687 55.014 23.275 54.6876ZM14.2188 52.5001C14.3583 49.9826 15.0372 47.5245 16.2094 45.2923C16.6447 44.4828 17.2944 43.8087 18.0873 43.3437C18.8802 42.8788 19.7857 42.641 20.7047 42.6563H30.625C31.0621 42.6326 31.4993 42.7013 31.9082 42.8578C32.317 43.0143 32.6883 43.2552 32.9978 43.5648C33.3074 43.8743 33.5482 44.2456 33.7048 44.6544C33.8613 45.0632 33.9299 45.5005 33.9063 45.9376V49.2188C33.9063 50.4021 34.29 51.5535 35 52.5001H14.2188ZM39.375 52.5001C38.698 52.4982 38.0382 52.2869 37.486 51.8953C36.9338 51.5037 36.5163 50.9508 36.2906 50.3126H41.5625C41.848 50.2942 42.1343 50.3356 42.4029 50.4342C42.6715 50.5327 42.9166 50.6862 43.1225 50.8849C43.3284 51.0836 43.4905 51.3231 43.5986 51.588C43.7066 51.8529 43.7582 52.1375 43.75 52.4235C43.3874 52.4719 43.0221 52.4974 42.6563 52.5001H39.375ZM46.3859 51.2204C46.2279 51.3992 46.0478 51.5572 45.85 51.6907C45.7299 50.8638 45.3595 50.0935 44.7885 49.4834C44.2175 48.8733 43.4734 48.4527 42.6563 48.2782V42.6563C42.7549 40.8717 42.1839 39.1145 41.0551 37.7287C39.9263 36.343 38.3208 35.4284 36.5531 35.1642C36.8335 34.1831 37.3139 33.2708 37.9641 32.4845C37.9923 32.4462 38.0179 32.406 38.0406 32.3641C39.7384 33.7412 41.7812 34.6264 43.9469 34.9235L47.0313 48.3329C47.2045 49.3428 46.9726 50.3803 46.3859 51.2204ZM49.2188 47.8845L46.2109 35.0001C48.0617 35.0171 49.8904 34.5974 51.5485 33.7751L56.7109 45.8063L51.9422 52.5001H48.125C48.605 51.8421 48.949 51.095 49.1368 50.3024C49.3246 49.5099 49.3525 48.6879 49.2188 47.8845ZM59.0625 52.5001H57.1813C57.422 52.083 57.7937 51.7571 58.2386 51.5728C58.6835 51.3886 59.1767 51.3562 59.6419 51.4809C60.107 51.6055 60.518 51.8801 60.8112 52.2622C61.1043 52.6442 61.2632 53.1123 61.2632 53.5938C61.2632 54.0754 61.1043 54.5435 60.8112 54.9255C60.518 55.3075 60.107 55.5822 59.6419 55.7068C59.1767 55.8314 58.6835 55.7991 58.2386 55.6148C57.7937 55.4305 57.422 55.1046 57.1813 54.6876H59.0625C59.3526 54.6876 59.6308 54.5723 59.8359 54.3672C60.041 54.1621 60.1563 53.8839 60.1563 53.5938C60.1563 53.3037 60.041 53.0255 59.8359 52.8204C59.6308 52.6153 59.3526 52.5001 59.0625 52.5001ZM54.6219 52.5001L55.0047 51.9641C54.9386 52.1391 54.8838 52.3181 54.8406 52.5001H54.6219ZM59.0625 60.1563C57.5128 60.1548 56.0136 59.6048 54.8305 58.6039C53.6474 57.6029 52.8567 56.2156 52.5984 54.6876H54.8406C55.0802 55.6102 55.6145 56.4293 56.3622 57.0204C57.11 57.6115 58.0304 57.9422 58.9833 57.9622C59.9363 57.9822 60.8697 57.6904 61.6417 57.1313C62.4136 56.5721 62.9819 55.7762 63.2599 54.8645C63.538 53.9528 63.5107 52.9752 63.1822 52.0804C62.8537 51.1856 62.242 50.4226 61.4401 49.9073C60.6381 49.3921 59.6899 49.1529 58.7395 49.226C57.7891 49.2992 56.8887 49.6807 56.175 50.3126L58.5047 47.0313C58.6906 47.0313 58.8766 47.0313 59.0625 47.0313C60.803 47.0313 62.4722 47.7227 63.7029 48.9534C64.9336 50.1841 65.625 51.8533 65.625 53.5938C65.625 55.3343 64.9336 57.0035 63.7029 58.2342C62.4722 59.4649 60.803 60.1563 59.0625 60.1563Z" fill="#8CBD37"/>
</svg>
