<svg width="101" height="100" viewBox="0 0 101 100" fill="none" xmlns="http://www.w3.org/2000/svg">
<circle cx="50.5" cy="50" r="50" fill="#8CBD37"/>
<path d="M75.4688 61.4696H75.1078L71.1594 52.2602C71.8289 52.5536 72.5504 52.7098 73.2813 52.7196C73.5713 52.7196 73.8495 52.6043 74.0547 52.3992C74.2598 52.1941 74.375 51.9159 74.375 51.6258V42.8758C74.375 42.5857 74.2598 42.3075 74.0547 42.1024C73.8495 41.8973 73.5713 41.7821 73.2813 41.7821C72.1423 41.7882 71.0336 42.1499 70.11 42.8166C69.1865 43.4833 68.4942 44.4217 68.1297 45.5008C67.8079 45.0515 67.3971 44.673 66.923 44.3889C66.4489 44.1048 65.9215 43.9211 65.3734 43.8493C64.6787 43.7595 63.9732 43.8041 63.2953 43.9805H62.3438C60.4953 43.9805 59.675 42.8868 58.3844 41.1039L57.7391 40.1961C58.4009 40.1624 59.0422 39.9549 59.5984 39.5946C60.0205 39.2882 60.3778 38.9015 60.65 38.4567C60.9222 38.0118 61.1038 37.5176 61.1844 37.0024C61.5399 36.7976 61.8508 36.5237 62.0987 36.1968C62.3467 35.87 62.5267 35.4968 62.6281 35.0993C62.6743 34.7857 62.6437 34.4656 62.539 34.1665C62.4342 33.8674 62.2583 33.5982 62.0266 33.3821C61.5799 32.6175 61.3353 31.7517 61.3156 30.8664C61.598 30.8495 61.8629 30.7239 62.0546 30.5159C62.2463 30.3078 62.3499 30.0336 62.3438 29.7508C62.3439 28.5916 62.1136 27.4438 61.6664 26.3743C61.2192 25.3048 60.5639 24.3348 59.7386 23.5207C58.9133 22.7066 57.9344 22.0646 56.8589 21.632C55.7834 21.1994 54.6326 20.9849 53.4734 21.0008C51.1987 21.0456 49.0297 21.9692 47.4209 23.578C45.8121 25.1867 44.8885 27.3558 44.8438 29.6305C44.8233 30.7902 45.0354 31.9422 45.4674 33.0186C45.8995 34.095 46.5428 35.074 47.3594 35.8977C47.6014 36.1382 47.857 36.3646 48.125 36.5758C43.9031 37.6039 41.6828 41.5633 40.5453 44.9977C40.2216 44.6715 39.8365 44.4127 39.4123 44.2363C38.988 44.0598 38.533 43.9692 38.0734 43.9696H26.4578C25.8745 43.9686 25.3003 44.1143 24.7881 44.3934C24.2759 44.6724 23.8421 45.0758 23.5266 45.5664C23.3685 45.8101 23.3136 46.1066 23.3742 46.3907C23.4347 46.6748 23.6056 46.9232 23.8492 47.0813C24.0929 47.2394 24.3894 47.2942 24.6735 47.2337C24.9576 47.1732 25.206 47.0023 25.3641 46.7586C25.4819 46.5761 25.644 46.4262 25.8352 46.323C26.0264 46.2197 26.2405 46.1664 26.4578 46.168H28.4375V49.4493C28.4375 49.7393 28.5527 50.0175 28.7579 50.2227C28.963 50.4278 29.2412 50.543 29.5313 50.543H35C35.2901 50.543 35.5683 50.4278 35.7734 50.2227C35.9785 50.0175 36.0938 49.7393 36.0938 49.4493V46.1571H38.0734C38.2444 46.1571 38.4136 46.1907 38.5715 46.2561C38.7294 46.3216 38.8729 46.4174 38.9938 46.5383C39.1146 46.6592 39.2105 46.8026 39.2759 46.9605C39.3413 47.1185 39.375 47.2877 39.375 47.4586V55.8039C39.3721 56.1472 39.2337 56.4755 38.9899 56.7172C38.7462 56.959 38.4167 57.0946 38.0734 57.0946H26.4578C26.1446 57.1032 25.8391 56.9967 25.5992 56.7951C25.3593 56.5935 25.2017 56.3109 25.1563 56.0008H27.3438C27.6338 56.0008 27.912 55.8856 28.1172 55.6805C28.3223 55.4753 28.4375 55.1971 28.4375 54.9071C28.4375 54.617 28.3223 54.3388 28.1172 54.1337C27.912 53.9286 27.6338 53.8133 27.3438 53.8133H25.1563V51.6258H26.25C26.5401 51.6258 26.8183 51.5106 27.0234 51.3055C27.2285 51.1003 27.3438 50.8221 27.3438 50.5321C27.3438 50.242 27.2285 49.9638 27.0234 49.7587C26.8183 49.5536 26.5401 49.4383 26.25 49.4383H20.7813C20.4912 49.4383 20.213 49.5536 20.0079 49.7587C19.8027 49.9638 19.6875 50.242 19.6875 50.5321C19.6875 50.8221 19.8027 51.1003 20.0079 51.3055C20.213 51.5106 20.4912 51.6258 20.7813 51.6258H22.9688V53.8133H18.5938C18.3037 53.8133 18.0255 53.9286 17.8204 54.1337C17.6152 54.3388 17.5 54.617 17.5 54.9071C17.5 55.1971 17.6152 55.4753 17.8204 55.6805C18.0255 55.8856 18.3037 56.0008 18.5938 56.0008H22.9688C23.019 56.8868 23.406 57.7202 24.0506 58.3302C24.6951 58.9402 25.5485 59.2807 26.4359 59.2821H31.9047C31.3986 59.7784 30.9675 60.3458 30.625 60.9664C29.1644 63.8308 28.4141 67.0044 28.4375 70.2196C28.4375 70.5096 28.5527 70.7878 28.7579 70.993C28.963 71.1981 29.2412 71.3133 29.5313 71.3133H32.8891C33.169 73.4153 34.2027 75.3442 35.7981 76.7412C37.3935 78.1382 39.4419 78.9083 41.5625 78.9083C43.6831 78.9083 45.7315 78.1382 47.3269 76.7412C48.9223 75.3442 49.956 73.4153 50.2359 71.3133H66.7953C67.0059 72.9844 67.6942 74.5591 68.7777 75.8486C69.8612 77.1381 71.2938 78.0874 72.9036 78.5827C74.5134 79.078 76.2319 79.0981 77.8529 78.6407C79.4739 78.1833 80.9284 77.2679 82.0418 76.0042C83.1553 74.7405 83.8804 73.1823 84.13 71.5166C84.3797 69.851 84.1433 68.1487 83.4493 66.6141C82.7553 65.0794 81.6332 63.7777 80.2175 62.8652C78.8019 61.9526 77.153 61.468 75.4688 61.4696ZM33.9063 48.3446H30.625V46.1571H33.9063V48.3446ZM72.1875 44.1555V50.3461C71.5466 50.1207 70.9915 49.7018 70.5987 49.1474C70.206 48.5929 69.9951 47.9302 69.9951 47.2508C69.9951 46.5714 70.206 45.9087 70.5987 45.3543C70.9915 44.7998 71.5466 44.381 72.1875 44.1555ZM65.0563 46.0039C65.485 46.0681 65.8834 46.2634 66.1967 46.5631C66.5101 46.8627 66.723 47.2519 66.8063 47.6774L67.0906 48.3446C65.5678 49.1274 63.8688 49.5041 62.1578 49.4383C62.0072 48.7886 62.0861 48.1067 62.3812 47.5086C62.6763 46.9104 63.1693 46.4329 63.7766 46.1571C64.1891 46.0233 64.6245 45.9749 65.0563 46.0149V46.0039ZM59.6641 35.3289C59.482 35.4207 59.3293 35.5614 59.223 35.7354C59.1167 35.9093 59.0611 36.1095 59.0625 36.3133C59.0544 36.5887 58.989 36.8593 58.8703 37.1079C58.7517 37.3565 58.5824 37.5776 58.3734 37.7571C57.75 38.1727 56.5906 38.0743 55.0922 37.4836C55.0122 37.4748 54.9315 37.4748 54.8516 37.4836L54.6875 37.3414V33.1524C54.6875 32.5403 54.9307 31.9533 55.3634 31.5205C55.7962 31.0877 56.3833 30.8446 56.9953 30.8446H59.0625C59.0969 32.2604 59.5415 33.6358 60.3422 34.8039C60.1443 35.0156 59.9157 35.1963 59.6641 35.3399V35.3289ZM47.0313 29.6524C47.086 27.9554 47.7845 26.3428 48.9851 25.1422C50.1857 23.9416 51.7983 23.243 53.4953 23.1883H53.5938C55.1453 23.1873 56.6471 23.7361 57.8325 24.7372C59.0179 25.7384 59.8102 27.1272 60.0688 28.6571H56.9953C55.804 28.66 54.6623 29.1345 53.8198 29.9769C52.9774 30.8193 52.5029 31.961 52.5 33.1524V36.2258C50.9552 35.9649 49.5547 35.1598 48.5517 33.9562C47.5487 32.7526 47.0094 31.2299 47.0313 29.6633V29.6524ZM50.3125 38.5008C53.8891 38.5008 55.2016 40.3711 56.5906 42.3399C57.5969 43.7836 58.7781 45.3586 60.7469 45.9164C60.1276 46.9171 59.8476 48.0908 59.9484 49.2633C58.5909 48.9668 57.3105 48.3892 56.1897 47.5679C55.0688 46.7466 54.1324 45.6997 53.4406 44.4946C53.381 44.35 53.2912 44.2199 53.177 44.113C53.0629 44.0061 52.9272 43.925 52.779 43.875C52.6308 43.825 52.4737 43.8074 52.3181 43.8233C52.1626 43.8392 52.0123 43.8883 51.8773 43.9672C51.7423 44.0462 51.6258 44.1531 51.5357 44.2809C51.4456 44.4087 51.3839 44.5543 51.3548 44.7079C51.3257 44.8615 51.3299 45.0196 51.367 45.1715C51.4042 45.3234 51.4735 45.4655 51.5703 45.5883C51.9668 46.2537 52.4206 46.8831 52.9266 47.4696L52.8281 47.5352C51.8086 48.7079 51.0914 50.1123 50.7391 51.6258H41.5625V50.5321C41.6391 49.8649 42.8859 38.5008 50.3125 38.5008ZM41.5625 55.793V53.8133H51.4063C51.625 53.8133 56.875 53.8789 56.875 59.2821V64.7508H52.5V62.5633C52.5276 61.8377 52.4051 61.1143 52.1401 60.4382C51.875 59.7622 51.4732 59.1483 50.9597 58.6348C50.4463 58.1214 49.8323 57.7196 49.1563 57.4545C48.4803 57.1895 47.7568 57.0669 47.0313 57.0946H41.3109C41.478 56.681 41.5634 56.239 41.5625 55.793ZM41.5625 76.7821C40.0128 76.7805 38.5136 76.2305 37.3305 75.2296C36.1474 74.2287 35.3567 72.8413 35.0984 71.3133H37.3406C37.5925 72.2401 38.1423 73.0583 38.9053 73.6416C39.6683 74.2249 40.6021 74.541 41.5625 74.541C42.5229 74.541 43.4567 74.2249 44.2197 73.6416C44.9827 73.0583 45.5325 72.2401 45.7844 71.3133H48.0266C47.7683 72.8413 46.9776 74.2287 45.7945 75.2296C44.6114 76.2305 43.1122 76.7805 41.5625 76.7821ZM39.6813 71.3133H43.4438C43.2501 71.6397 42.9748 71.9101 42.6449 72.098C42.3151 72.2858 41.9421 72.3845 41.5625 72.3845C41.1829 72.3845 40.8099 72.2858 40.4801 72.098C40.1502 71.9101 39.8749 71.6397 39.6813 71.3133ZM30.625 69.1258C30.7646 66.6083 31.4434 64.1503 32.6156 61.918C33.051 61.1085 33.7007 60.4344 34.4935 59.9695C35.2864 59.5046 36.1919 59.2667 37.1109 59.2821H47.0313C47.4684 59.2584 47.9056 59.327 48.3144 59.4836C48.7232 59.6401 49.0945 59.881 49.4041 60.1905C49.7136 60.5 49.9545 60.8713 50.111 61.2802C50.2675 61.689 50.3362 62.1262 50.3125 62.5633V65.8446C50.3125 67.0278 50.6963 68.1792 51.4063 69.1258H30.625ZM55.7813 69.1258C55.1043 69.1239 54.4445 68.9127 53.8923 68.521C53.3401 68.1294 52.9225 67.5766 52.6969 66.9383H57.9688C58.2543 66.9199 58.5405 66.9613 58.8091 67.0599C59.0777 67.1585 59.3228 67.312 59.5287 67.5107C59.7346 67.7093 59.8968 67.9488 60.0048 68.2137C60.1129 68.4787 60.1645 68.7632 60.1563 69.0492C59.7936 69.0976 59.4283 69.1232 59.0625 69.1258H55.7813ZM62.7922 67.8461C62.6342 68.0249 62.4541 68.183 62.2563 68.3164C62.1362 67.4895 61.7657 66.7192 61.1948 66.1091C60.6238 65.4991 59.8797 65.0785 59.0625 64.9039V59.2821C59.1612 57.4974 58.5902 55.7402 57.4613 54.3545C56.3325 52.9687 54.7271 52.0542 52.9594 51.7899C53.2398 50.8089 53.7202 49.8965 54.3703 49.1102C54.3986 49.0719 54.4242 49.0317 54.4469 48.9899C56.1446 50.367 58.1874 51.2522 60.3531 51.5493L63.4375 64.9586C63.6107 65.9685 63.3789 67.006 62.7922 67.8461ZM65.625 64.5102L62.6172 51.6258C64.4679 51.6429 66.2966 51.2232 67.9547 50.4008L73.1172 62.4321L68.3484 69.1258H64.5313C65.0113 68.4678 65.3553 67.7207 65.5431 66.9282C65.7309 66.1356 65.7587 65.3136 65.625 64.5102ZM75.4688 69.1258H73.5875C73.8283 68.7088 74.1999 68.3829 74.6448 68.1986C75.0897 68.0143 75.583 67.982 76.0481 68.1066C76.5132 68.2312 76.9243 68.5059 77.2174 68.8879C77.5106 69.2699 77.6694 69.738 77.6694 70.2196C77.6694 70.7011 77.5106 71.1692 77.2174 71.5512C76.9243 71.9333 76.5132 72.2079 76.0481 72.3325C75.583 72.4572 75.0897 72.4248 74.6448 72.2405C74.1999 72.0563 73.8283 71.7303 73.5875 71.3133H75.4688C75.7588 71.3133 76.037 71.1981 76.2422 70.993C76.4473 70.7878 76.5625 70.5096 76.5625 70.2196C76.5625 69.9295 76.4473 69.6513 76.2422 69.4462C76.037 69.241 75.7588 69.1258 75.4688 69.1258ZM71.0281 69.1258L71.4109 68.5899C71.3449 68.7648 71.2901 68.9438 71.2469 69.1258H71.0281ZM75.4688 76.7821C73.9191 76.7805 72.4199 76.2305 71.2368 75.2296C70.0537 74.2287 69.263 72.8413 69.0047 71.3133H71.2469C71.4864 72.2359 72.0207 73.055 72.7685 73.6461C73.5163 74.2372 74.4366 74.5679 75.3896 74.5879C76.3426 74.6079 77.276 74.3162 78.0479 73.757C78.8199 73.1979 79.3881 72.4019 79.6662 71.4902C79.9443 70.5785 79.917 69.6009 79.5885 68.7061C79.26 67.8113 78.6482 67.0483 77.8463 66.5331C77.0444 66.0179 76.0961 65.7786 75.1458 65.8518C74.1954 65.9249 73.2949 66.3064 72.5813 66.9383L74.911 63.6571C75.0969 63.6571 75.2828 63.6571 75.4688 63.6571C77.2092 63.6571 78.8784 64.3485 80.1092 65.5792C81.3399 66.8099 82.0313 68.4791 82.0313 70.2196C82.0313 71.96 81.3399 73.6292 80.1092 74.8599C78.8784 76.0907 77.2092 76.7821 75.4688 76.7821Z" fill="white"/>
</svg>
