<svg width="101" height="100" viewBox="0 0 101 100" fill="none" xmlns="http://www.w3.org/2000/svg">
<circle cx="50.5" cy="50" r="50" fill="#8CBD37"/>
<path d="M24.5 76.8971H77.5" stroke="white" stroke-width="3" stroke-miterlimit="10" stroke-linecap="round" stroke-linejoin="round"/>
<path d="M38.5612 73.1156C38.5612 75.2064 36.8663 76.9013 34.7755 76.9013C32.6847 76.9013 30.9897 75.2064 30.9897 73.1156C30.9897 71.0247 34.7755 67.1666 34.7755 67.1666C34.7755 67.1666 38.5612 71.0247 38.5612 73.1156Z" stroke="white" stroke-width="3" stroke-miterlimit="10" stroke-linecap="round" stroke-linejoin="round"/>
<path d="M54.7858 73.1156C54.7858 75.2064 53.0909 76.9013 51.0001 76.9013C48.9093 76.9013 47.2144 75.2064 47.2144 73.1156C47.2144 71.0247 51.0001 67.1666 51.0001 67.1666C51.0001 67.1666 54.7858 71.0247 54.7858 73.1156Z" stroke="white" stroke-width="3" stroke-miterlimit="10" stroke-linecap="round" stroke-linejoin="round"/>
<path d="M71.0102 73.1156C71.0102 75.2064 69.3153 76.9013 67.2245 76.9013C65.1336 76.9013 63.4387 75.2064 63.4387 73.1156C63.4387 71.0247 67.2245 67.1666 67.2245 67.1666C67.2245 67.1666 71.0102 71.0247 71.0102 73.1156Z" stroke="white" stroke-width="3" stroke-miterlimit="10" stroke-linecap="round" stroke-linejoin="round"/>
<path d="M65.6021 62.8374H36.398C32.8138 62.8374 29.9082 59.9318 29.9082 56.3476V37.96H72.0919V56.3477C72.0919 59.9319 69.1863 62.8374 65.6021 62.8374Z" stroke="white" stroke-width="3" stroke-miterlimit="10" stroke-linecap="round" stroke-linejoin="round"/>
<path d="M29.9082 37.96H24.5V43.3681H29.9082V37.96Z" stroke="white" stroke-width="3" stroke-miterlimit="10" stroke-linecap="round" stroke-linejoin="round"/>
<path d="M77.5 37.96H72.0918V43.4042H77.5V37.96Z" stroke="white" stroke-width="3" stroke-miterlimit="10" stroke-linecap="round" stroke-linejoin="round"/>
<path d="M38.308 37.7938C39.4119 37.3366 39.9361 36.0711 39.4788 34.9673C39.0216 33.8634 37.7561 33.3393 36.6522 33.7965C35.5484 34.2537 35.0242 35.5192 35.4815 36.6231C35.9387 37.7269 37.2042 38.2511 38.308 37.7938Z" stroke="white" stroke-width="3" stroke-miterlimit="10" stroke-linecap="round" stroke-linejoin="round"/>
<path d="M45.8793 30.2257C46.9832 29.7685 47.5073 28.503 47.0501 27.3992C46.5929 26.2953 45.3274 25.7711 44.2235 26.2284C43.1197 26.6856 42.5955 27.9511 43.0528 29.055C43.51 30.1588 44.7755 30.683 45.8793 30.2257Z" stroke="white" stroke-width="3" stroke-miterlimit="10" stroke-linecap="round" stroke-linejoin="round"/>
<path d="M65.3493 37.7938C66.4531 37.3366 66.9773 36.0711 66.5201 34.9673C66.0628 33.8634 64.7973 33.3393 63.6935 33.7965C62.5897 34.2537 62.0655 35.5192 62.5227 36.6231C62.98 37.7269 64.2455 38.2511 65.3493 37.7938Z" stroke="white" stroke-width="3" stroke-miterlimit="10" stroke-linecap="round" stroke-linejoin="round"/>
<path d="M57.3969 27.5891C58.2417 26.7443 58.2417 25.3746 57.3969 24.5298C56.5521 23.685 55.1823 23.685 54.3375 24.5298C53.4927 25.3746 53.4927 26.7443 54.3375 27.5891C55.1823 28.4339 56.5521 28.4339 57.3969 27.5891Z" stroke="white" stroke-width="3" stroke-miterlimit="10" stroke-linecap="round" stroke-linejoin="round"/>
</svg>
