<svg width="101" height="100" viewBox="0 0 101 100" fill="none" xmlns="http://www.w3.org/2000/svg">
<circle cx="50.5" cy="50" r="50" fill="#8CBD37"/>
<path d="M70.6693 78.0013H32.3295L30.0059 71.0304H72.9929L70.6693 78.0013Z" stroke="white" stroke-width="3" stroke-miterlimit="10" stroke-linecap="round" stroke-linejoin="round"/>
<path d="M23.5 71.0304H79.4994" stroke="white" stroke-width="3" stroke-miterlimit="10" stroke-linecap="round" stroke-linejoin="round"/>
<path d="M75.8281 70.906C75.4296 57.8135 64.6898 47.3212 51.4997 47.3212C38.3097 47.3212 27.5699 57.8135 27.1714 70.906" stroke="white" stroke-width="3" stroke-miterlimit="10" stroke-linecap="round" stroke-linejoin="round"/>
<path d="M51.4998 43.1687V47.0027" stroke="white" stroke-width="3" stroke-miterlimit="10" stroke-linecap="round" stroke-linejoin="round"/>
<path d="M41.8511 36.648C41.8511 36.648 43.8292 34.0336 41.8511 31.2921C39.873 28.5506 42.2907 26.1523 42.2907 26.1523" stroke="white" stroke-width="3" stroke-miterlimit="10" stroke-linecap="round" stroke-linejoin="round"/>
<path d="M51.3799 32.4958C51.3799 32.4958 53.358 29.8814 51.3799 27.1399C49.4018 24.3983 51.8194 22 51.8194 22" stroke="white" stroke-width="3" stroke-miterlimit="10" stroke-linecap="round" stroke-linejoin="round"/>
<path d="M61.0471 36.648C61.0471 36.648 63.0252 34.0336 61.0471 31.2921C59.069 28.5506 61.4867 26.1523 61.4867 26.1523" stroke="white" stroke-width="3" stroke-miterlimit="10" stroke-linecap="round" stroke-linejoin="round"/>
</svg>
